<svg id="visual" viewBox="0 0 900 300" width="900" height="300" xmlns="http://www.w3.org/2000/svg" xmlns:xlink="http://www.w3.org/1999/xlink" version="1.1"><rect x="0" y="0" width="900" height="300" fill="#272727"></rect><path d="M0 87L37.5 87.3C75 87.7 150 88.3 225 89.7C300 91 375 93 450 91.8C525 90.7 600 86.3 675 86.3C750 86.3 825 90.7 862.5 92.8L900 95L900 0L862.5 0C825 0 750 0 675 0C600 0 525 0 450 0C375 0 300 0 225 0C150 0 75 0 37.5 0L0 0Z" fill="#12976d"></path><path d="M0 73L37.5 72C75 71 150 69 225 70C300 71 375 75 450 74.5C525 74 600 69 675 64.8C750 60.7 825 57.3 862.5 55.7L900 54L900 0L862.5 0C825 0 750 0 675 0C600 0 525 0 450 0C375 0 300 0 225 0C150 0 75 0 37.5 0L0 0Z" fill="#20855b"></path><path d="M0 41L37.5 41.8C75 42.7 150 44.3 225 46.3C300 48.3 375 50.7 450 51.2C525 51.7 600 50.3 675 51.7C750 53 825 57 862.5 59L900 61L900 0L862.5 0C825 0 750 0 675 0C600 0 525 0 450 0C375 0 300 0 225 0C150 0 75 0 37.5 0L0 0Z" fill="#25734a"></path><path d="M0 45L37.5 42.5C75 40 150 35 225 34.2C300 33.3 375 36.7 450 36.2C525 35.7 600 31.3 675 29.5C750 27.7 825 28.3 862.5 28.7L900 29L900 0L862.5 0C825 0 750 0 675 0C600 0 525 0 450 0C375 0 300 0 225 0C150 0 75 0 37.5 0L0 0Z" fill="#26623b"></path><path d="M0 21L37.5 21.8C75 22.7 150 24.3 225 24.5C300 24.7 375 23.3 450 21.3C525 19.3 600 16.7 675 16.8C750 17 825 20 862.5 21.5L900 23L900 0L862.5 0C825 0 750 0 675 0C600 0 525 0 450 0C375 0 300 0 225 0C150 0 75 0 37.5 0L0 0Z" fill="#24512d"></path></svg>