<svg id="visual" viewBox="0 0 900 300" width="900" height="300" xmlns="http://www.w3.org/2000/svg" xmlns:xlink="http://www.w3.org/1999/xlink" version="1.1"><path d="M0 197L25 202.5C50 208 100 219 150 224.5C200 230 250 230 300 227.2C350 224.3 400 218.7 450 218.8C500 219 550 225 600 225.5C650 226 700 221 750 217C800 213 850 210 875 208.5L900 207L900 301L875 301C850 301 800 301 750 301C700 301 650 301 600 301C550 301 500 301 450 301C400 301 350 301 300 301C250 301 200 301 150 301C100 301 50 301 25 301L0 301Z" fill="#12964e"></path><path d="M0 221L25 222.3C50 223.7 100 226.3 150 226.3C200 226.3 250 223.7 300 224.3C350 225 400 229 450 232.8C500 236.7 550 240.3 600 237.8C650 235.3 700 226.7 750 225C800 223.3 850 228.7 875 231.3L900 234L900 301L875 301C850 301 800 301 750 301C700 301 650 301 600 301C550 301 500 301 450 301C400 301 350 301 300 301C250 301 200 301 150 301C100 301 50 301 25 301L0 301Z" fill="#1e8445"></path><path d="M0 236L25 237.2C50 238.3 100 240.7 150 243.3C200 246 250 249 300 248.7C350 248.3 400 244.7 450 241.8C500 239 550 237 600 238.5C650 240 700 245 750 246.8C800 248.7 850 247.3 875 246.7L900 246L900 301L875 301C850 301 800 301 750 301C700 301 650 301 600 301C550 301 500 301 450 301C400 301 350 301 300 301C250 301 200 301 150 301C100 301 50 301 25 301L0 301Z" fill="#23733c"></path><path d="M0 268L25 266.2C50 264.3 100 260.7 150 261.7C200 262.7 250 268.3 300 268.2C350 268 400 262 450 259C500 256 550 256 600 258.2C650 260.3 700 264.7 750 267.5C800 270.3 850 271.7 875 272.3L900 273L900 301L875 301C850 301 800 301 750 301C700 301 650 301 600 301C550 301 500 301 450 301C400 301 350 301 300 301C250 301 200 301 150 301C100 301 50 301 25 301L0 301Z" fill="#256234"></path><path d="M0 286L25 285.3C50 284.7 100 283.3 150 282.8C200 282.3 250 282.7 300 282.8C350 283 400 283 450 281.7C500 280.3 550 277.7 600 277.7C650 277.7 700 280.3 750 279.3C800 278.3 850 273.7 875 271.3L900 269L900 301L875 301C850 301 800 301 750 301C700 301 650 301 600 301C550 301 500 301 450 301C400 301 350 301 300 301C250 301 200 301 150 301C100 301 50 301 25 301L0 301Z" fill="#24512d"></path></svg>