<svg id="visual" viewBox="0 0 900 300" width="900" height="300" xmlns="http://www.w3.org/2000/svg" xmlns:xlink="http://www.w3.org/1999/xlink" version="1.1"><path d="M0 211L37.5 210.7C75 210.3 150 209.7 225 208.3C300 207 375 205 450 206.2C525 207.3 600 211.7 675 211.7C750 211.7 825 207.3 862.5 205.2L900 203L900 301L862.5 301C825 301 750 301 675 301C600 301 525 301 450 301C375 301 300 301 225 301C150 301 75 301 37.5 301L0 301Z" fill="#12976d"></path><path d="M0 225L37.5 226C75 227 150 229 225 228C300 227 375 223 450 223.5C525 224 600 229 675 233.2C750 237.3 825 240.7 862.5 242.3L900 244L900 301L862.5 301C825 301 750 301 675 301C600 301 525 301 450 301C375 301 300 301 225 301C150 301 75 301 37.5 301L0 301Z" fill="#20855b"></path><path d="M0 257L37.5 256.2C75 255.3 150 253.7 225 251.7C300 249.7 375 247.3 450 246.8C525 246.3 600 247.7 675 246.3C750 245 825 241 862.5 239L900 237L900 301L862.5 301C825 301 750 301 675 301C600 301 525 301 450 301C375 301 300 301 225 301C150 301 75 301 37.5 301L0 301Z" fill="#25734a"></path><path d="M0 253L37.5 255.5C75 258 150 263 225 263.8C300 264.7 375 261.3 450 261.8C525 262.3 600 266.7 675 268.5C750 270.3 825 269.7 862.5 269.3L900 269L900 301L862.5 301C825 301 750 301 675 301C600 301 525 301 450 301C375 301 300 301 225 301C150 301 75 301 37.5 301L0 301Z" fill="#26623b"></path><path d="M0 277L37.5 276.2C75 275.3 150 273.7 225 273.5C300 273.3 375 274.7 450 276.7C525 278.7 600 281.3 675 281.2C750 281 825 278 862.5 276.5L900 275L900 301L862.5 301C825 301 750 301 675 301C600 301 525 301 450 301C375 301 300 301 225 301C150 301 75 301 37.5 301L0 301Z" fill="#24512d"></path></svg>